<?xml version="1.0" standalone="no"?>
<!DOCTYPE svg PUBLIC "-//W3C//DTD SVG 20010904//EN"
 "http://www.w3.org/TR/2001/REC-SVG-20010904/DTD/svg10.dtd">
<svg version="1.0" xmlns="http://www.w3.org/2000/svg"
 width="960.000000pt" height="960.000000pt" viewBox="0 0 960.000000 960.000000"
 preserveAspectRatio="xMidYMid meet">
<metadata>
Created by potrace 1.14, written by Peter Selinger 2001-2017
</metadata>
<g transform="translate(0.000000,960.000000) scale(0.100000,-0.100000)"
fill="#000000" stroke="none">
<path d="M4528 9595 c-2 -1 -48 -5 -103 -9 -55 -3 -111 -8 -125 -10 -14 -3
-50 -7 -80 -10 -30 -4 -68 -9 -85 -12 -16 -3 -46 -7 -65 -9 -19 -2 -35 -4 -35
-5 0 -1 -13 -3 -30 -5 -16 -2 -41 -6 -55 -10 -14 -3 -38 -8 -55 -10 -55 -8
-139 -27 -231 -51 -50 -13 -101 -26 -115 -28 -13 -3 -25 -5 -26 -7 -2 -1 -6
-2 -10 -3 -54 -15 -157 -46 -198 -62 -11 -4 -28 -9 -38 -11 -10 -1 -31 -10
-47 -18 -16 -8 -37 -17 -47 -18 -10 -2 -29 -8 -43 -14 -14 -6 -50 -19 -80 -31
-30 -11 -85 -34 -123 -51 -37 -17 -70 -31 -73 -31 -11 0 -282 -136 -373 -187
-109 -62 -263 -155 -271 -163 -3 -3 -26 -19 -52 -35 -27 -17 -48 -34 -48 -38
0 -5 -4 -6 -8 -3 -4 2 -25 -11 -47 -30 -22 -19 -43 -34 -47 -34 -7 0 -36 -21
-63 -47 -8 -7 -16 -13 -20 -13 -4 0 -12 -6 -19 -12 -7 -7 -30 -26 -51 -43 -59
-46 -195 -162 -261 -221 -128 -116 -337 -334 -444 -464 -19 -24 -41 -49 -48
-56 -6 -7 -12 -17 -12 -22 0 -6 -4 -12 -8 -14 -8 -3 -113 -137 -155 -198 -112
-162 -287 -442 -287 -460 0 -4 -9 -19 -21 -34 -11 -14 -17 -26 -14 -26 4 0 3
-6 -3 -12 -12 -15 -113 -217 -110 -220 1 -2 -5 -16 -15 -33 -38 -68 -104 -233
-98 -244 2 -2 -1 -7 -6 -10 -16 -11 -152 -422 -169 -511 -3 -14 -8 -34 -11
-45 -4 -11 -8 -25 -9 -31 -1 -7 -10 -45 -19 -85 -9 -41 -18 -81 -20 -89 -1 -8
-6 -33 -10 -55 -5 -22 -9 -49 -10 -60 -1 -11 -5 -36 -10 -55 -4 -19 -10 -51
-12 -70 -8 -69 -12 -95 -13 -95 -1 0 -6 -41 -15 -130 -16 -158 -20 -257 -20
-500 0 -241 4 -337 19 -455 7 -58 19 -163 22 -195 1 -16 3 -32 4 -35 1 -3 2
-9 1 -13 -1 -4 4 -17 10 -29 8 -14 8 -18 0 -14 -8 5 -8 0 -2 -17 5 -13 12 -40
15 -60 3 -20 8 -52 11 -69 3 -18 19 -89 35 -158 17 -69 33 -138 36 -153 3 -16
16 -63 30 -105 13 -42 24 -84 24 -93 0 -8 3 -18 6 -22 7 -7 84 -226 86 -244 1
-7 6 -13 11 -13 5 0 7 -7 3 -15 -3 -8 -1 -15 4 -15 6 0 10 -6 10 -14 0 -21
101 -250 172 -391 70 -140 101 -196 174 -318 30 -49 54 -93 54 -98 0 -5 5 -9
10 -9 6 0 10 -7 10 -15 0 -8 4 -15 8 -15 5 0 17 -16 28 -35 10 -19 22 -35 27
-35 4 0 6 -4 3 -9 -4 -5 -2 -11 2 -13 7 -2 74 -94 107 -146 6 -9 22 -30 37
-47 16 -16 28 -33 28 -37 0 -4 6 -13 12 -20 7 -7 31 -36 52 -63 22 -28 47 -57
55 -66 9 -9 36 -40 61 -69 25 -29 60 -69 79 -89 56 -60 211 -218 211 -216 0 1
31 -28 70 -64 38 -36 88 -82 111 -101 23 -19 47 -39 53 -45 6 -5 34 -28 61
-50 28 -21 52 -42 55 -46 11 -14 239 -179 290 -210 30 -18 57 -36 60 -39 6 -6
56 -39 85 -55 11 -6 46 -28 78 -48 31 -21 97 -59 145 -84 48 -25 103 -54 122
-65 19 -10 40 -18 46 -18 6 0 17 -7 24 -15 7 -9 15 -14 17 -11 3 2 35 -10 71
-28 137 -67 187 -91 192 -92 3 0 21 -7 40 -15 62 -27 384 -134 425 -142 11 -2
27 -7 35 -10 8 -4 24 -8 35 -10 11 -2 27 -7 35 -10 47 -18 129 -40 233 -62
106 -23 157 -31 250 -38 15 -1 27 -6 27 -10 0 -5 4 -5 10 -2 5 3 36 1 67 -4
32 -6 90 -13 128 -16 39 -4 77 -8 85 -10 82 -22 684 -21 863 0 18 2 57 7 87
10 30 4 71 9 90 11 19 1 49 6 65 9 80 14 105 17 169 21 38 2 75 9 81 14 7 5
14 7 18 4 3 -3 21 -1 39 5 18 6 49 13 68 16 48 8 109 25 145 40 17 8 59 21 95
30 36 9 108 31 160 48 52 17 102 32 111 33 8 0 40 9 70 20 29 10 57 17 62 16
4 -1 7 3 7 10 0 6 3 8 6 5 4 -4 19 0 33 7 14 8 51 24 81 36 30 13 66 31 79 41
13 10 27 16 32 13 5 -3 9 0 9 5 0 6 9 11 20 11 11 0 20 5 20 10 0 6 3 9 8 8 9
-3 134 54 252 116 52 27 105 54 117 60 13 6 23 14 23 19 0 4 4 7 10 7 5 0 32
16 59 35 26 19 53 35 59 35 6 0 12 3 14 8 4 9 84 61 100 64 7 2 21 11 32 21
11 9 24 17 29 17 4 0 14 6 22 13 7 6 25 21 41 32 76 54 198 148 218 168 12 12
44 40 71 62 26 22 58 50 71 62 13 13 27 23 31 23 12 0 257 242 380 375 113
123 243 281 243 296 0 6 4 8 8 5 5 -3 16 8 26 25 9 16 14 29 11 29 -3 0 6 12
20 27 14 15 25 31 25 35 0 3 6 13 13 20 6 7 23 30 37 50 14 21 29 38 33 38 5
0 6 4 2 9 -3 5 1 15 8 23 21 22 77 106 77 116 0 6 4 12 8 14 10 4 142 232 142
246 0 6 3 12 8 14 6 2 135 253 137 268 1 3 9 22 18 43 9 20 16 38 16 40 0 1
14 34 31 72 17 39 39 90 47 115 9 25 20 56 26 70 6 14 11 27 12 30 0 3 12 37
25 75 13 39 25 72 25 75 0 3 11 39 25 80 13 41 24 80 26 85 1 6 12 46 23 90
12 44 24 88 26 98 2 10 6 26 9 35 3 9 8 31 11 47 3 17 12 71 21 120 9 50 18
104 19 120 2 17 4 30 5 30 3 0 9 41 13 86 2 25 6 50 10 55 3 6 7 34 8 62 2 29
5 52 8 52 15 0 22 662 8 835 -10 139 -20 230 -33 310 -3 22 -7 54 -9 70 -1 17
-4 30 -5 30 -1 0 -3 14 -6 30 -2 17 -5 42 -7 58 -2 15 -6 30 -10 33 -3 3 -3
12 -1 19 3 7 0 16 -5 20 -6 3 -9 10 -6 15 3 5 1 27 -4 47 -19 71 -40 160 -46
193 -1 8 -5 22 -8 30 -5 15 -56 193 -62 220 -2 8 -22 67 -45 130 -23 63 -49
136 -57 163 -8 26 -19 47 -25 47 -6 0 -9 3 -5 6 5 5 -23 76 -81 204 -9 19 -16
37 -17 40 -1 3 -21 43 -45 90 -24 47 -43 88 -42 93 1 4 -1 7 -6 7 -4 0 -14 14
-21 32 -22 50 -134 243 -143 246 -4 2 -8 8 -8 13 0 8 -87 146 -100 159 -3 3
-18 25 -34 49 -16 25 -33 50 -37 55 -5 6 -41 54 -80 106 -40 52 -85 111 -101
130 -16 19 -37 44 -46 56 -155 188 -448 478 -642 632 -36 29 -72 58 -80 65
-57 50 -389 278 -437 300 -12 5 -23 14 -23 19 0 4 -4 8 -9 8 -5 0 -43 20 -85
45 -42 24 -76 42 -76 38 0 -4 -11 4 -25 17 -14 13 -25 20 -25 16 0 -5 -6 -4
-12 2 -15 12 -163 86 -263 132 -60 28 -242 104 -275 115 -3 1 -12 4 -20 8 -54
21 -188 66 -205 69 -11 2 -22 6 -25 10 -3 4 -17 9 -30 12 -14 3 -40 9 -58 15
-18 5 -34 10 -37 11 -3 0 -10 2 -17 4 -7 3 -26 8 -43 12 -16 4 -34 8 -40 10
-139 35 -251 61 -305 70 -60 9 -75 12 -75 14 0 1 -9 3 -20 4 -30 4 -117 17
-145 22 -14 2 -41 6 -60 8 -19 2 -64 6 -100 10 -167 18 -274 23 -512 24 -141
0 -258 -1 -260 -3z"/>
<path d="M7424 492 c2 -15 5 -30 5 -33 1 -3 37 -5 81 -4 l80 2 1 -46 c0 -25 0
-128 0 -228 l0 -183 37 0 37 0 0 228 0 227 75 1 c106 2 101 1 97 32 l-4 27
-207 2 -207 2 5 -27z"/>
<path d="M7903 259 l0 -260 36 3 36 3 0 203 c-1 111 2 202 5 202 5 0 29 -52
35 -76 2 -6 11 -29 20 -50 9 -22 21 -48 25 -59 4 -11 16 -38 26 -60 10 -22 19
-47 21 -55 1 -9 12 -37 23 -63 18 -41 25 -48 47 -45 25 3 36 22 64 116 6 17
14 32 19 32 6 0 10 9 10 21 0 12 7 35 15 52 8 18 30 73 49 122 20 50 36 83 37
75 1 -8 2 -105 3 -215 l1 -200 36 -3 35 -3 0 258 -1 258 -57 2 c-32 1 -58 -2
-58 -6 0 -5 -8 -26 -17 -47 -9 -22 -17 -41 -18 -44 -1 -3 -7 -18 -13 -33 -7
-16 -12 -35 -12 -43 0 -8 -4 -14 -10 -14 -5 0 -10 -8 -10 -17 0 -10 -6 -30
-14 -45 -8 -15 -17 -40 -21 -57 -4 -17 -11 -33 -16 -36 -5 -4 -9 -15 -9 -25 0
-44 -18 -23 -50 58 -18 48 -37 91 -41 97 -5 5 -9 16 -9 25 -1 8 -9 33 -20 55
-11 22 -19 44 -20 49 0 5 -8 27 -17 48 -17 38 -17 38 -73 38 l-57 0 0 -261z"/>
</g>
</svg>
